mtllib cubtext.mtl
o Cube
v 1.000000 1.000000 -1.000000
v 1.000000 -1.000000 -1.000000
v 1.000000 1.000000 1.000000
v 1.000000 -1.000000 1.000000
v -1.000000 0.804674 -0.804674
v -1.000000 -0.804674 -0.804674
v -1.000000 0.804674 0.804674
v -1.000000 -0.804674 0.804674
v -1.000000 -1.000000 -1.000000
v -1.000000 -1.000000 1.000000
v -1.000000 1.000000 1.000000
v -1.000000 1.000000 -1.000000
v -0.769303 -0.804674 -0.804674
v -0.769303 -0.804674 0.804674
v -0.769303 0.804674 0.804674
v -0.769303 0.804674 -0.804674
vt 0.875000 0.500000
vt 0.625000 0.750000
vt 0.625000 0.500000
vt 0.375000 1.000000
vt 0.375000 0.750000
vt 0.600584 0.225584
vt 0.600584 0.024416
vt 0.600584 0.024416
vt 0.375000 0.500000
vt 0.125000 0.750000
vt 0.125000 0.500000
vt 0.625000 0.250000
vt 0.375000 0.250000
vt 0.399416 0.225584
vt 0.375000 0.000000
vt 0.399416 0.024416
vt 0.625000 0.000000
vt 0.399416 0.024416
vt 0.600584 0.225584
vt 0.399416 0.225584
vt 0.875000 0.750000
vt 0.625000 1.000000
vn 0.0000 1.0000 0.0000
vn 0.0000 0.0000 1.0000
vn 0.0000 -1.0000 0.0000
vn 1.0000 0.0000 0.0000
vn 0.0000 0.0000 -1.0000
vn -1.0000 0.0000 0.0000
usemtl brick
s off
f 12/1/1 3/2/1 1/3/1
f 3/2/2 10/4/2 4/5/2
f 5/6/3 15/7/3 7/8/3
f 2/9/3 10/10/3 9/11/3
f 1/3/4 4/5/4 2/9/4
f 12/12/5 2/9/5 9/13/5
f 6/14/6 10/15/6 8/16/6
f 8/16/6 11/17/6 7/8/6
f 5/6/6 9/13/6 6/14/6
f 7/8/6 12/12/6 5/6/6
f 7/8/5 14/18/5 8/16/5
f 6/14/2 16/19/2 5/6/2
f 8/16/1 13/20/1 6/14/1
f 12/1/1 11/21/1 3/2/1
f 3/2/2 11/22/2 10/4/2
f 5/6/3 16/19/3 15/7/3
f 2/9/3 4/5/3 10/10/3
f 1/3/4 3/2/4 4/5/4
f 12/12/5 1/3/5 2/9/5
f 6/14/6 9/13/6 10/15/6
f 8/16/6 10/15/6 11/17/6
f 5/6/6 12/12/6 9/13/6
f 7/8/6 11/17/6 12/12/6
f 7/8/5 15/7/5 14/18/5
f 6/14/2 13/20/2 16/19/2
f 8/16/1 14/18/1 13/20/1
o Cube.001
v -0.769303 -0.804674 -0.804674
v -0.769303 -0.804674 0.804674
v -0.769303 0.804674 0.804674
v -0.769303 0.804674 -0.804674
vt 0.600766 0.999923
vt 0.000078 0.000077
vt 0.600766 0.000078
vt 0.000077 0.999922
vn -1.0000 0.0000 0.0000
usemtl window
s off
f 19/23/7 17/24/7 18/25/7
f 19/23/7 20/26/7 17/24/7
